<svg width="213" height="51" xmlns="http://www.w3.org/2000/svg" xmlns:xlink="http://www.w3.org/1999/xlink"><defs><path id="a" d="M.17.135h21.955v21.59H.171z"/><path id="c" d="M.054.135h21.953v21.59H.054z"/><path id="e" d="M0 49.866h211.433V.346H0z"/></defs><g transform="translate(1 1)" fill="none" fill-rule="evenodd"><path d="M18.531 18.054c-1.914 2.548-5.127 3.953-8.274 3.92C4.675 21.943-.127 17.27.003 11.094.003 6.13 3.702 1.588 8.667.64a13.423 13.423 0 0 1 1.687-.098c2.823 0 5.841.98 7.626 3.07.973 1.144-.682 2.712-1.687 1.536-1.819-2.124-4.836-2.875-7.27-2.254-3.568.85-6.684 4.02-6.684 8.299.065 4.607 3.765 8.462 7.95 8.56 2.401.033 4.9-1.013 6.328-2.94v-4.346h-5.841c-1.525 0-1.363-2.156 0-2.156h6.88c.94 0 1.232.49 1.232 1.208v5.457c0 .36-.065.784-.357 1.078M26.578 14.395v6.339c0 1.502-2.368 1.502-2.368.032V2.011c0-.686.486-1.143 1.2-1.143h7.69c5.615 0 8.47 3.202 8.47 7.025 0 3.299-1.784 5.685-5.776 6.371l5.257 5.718c1.233 1.242-.552 2.679-1.622 1.568l-6.555-7.155h-6.296zm0-2.058h6.555c4.252 0 6.101-1.994 6.036-4.444-.032-2.68-2.27-4.835-6.036-4.835h-6.555v9.279zM47.865 19.524h12.818c1.363 0 1.558 2.156 0 2.156H47.021c-.908 0-1.492-.653-1.492-1.437V2.306c0-.751.584-1.405 1.492-1.405h13.695c1.395 0 1.33 2.09-.033 2.09H47.865v7.352h12.2c1.3 0 1.363 2.091 0 2.091h-12.2v7.09z" stroke="#222F50" fill="#2D2F4A"/><g transform="translate(63.591 .211)"><mask id="b" fill="#fff"><use xlink:href="#a"/></mask><path d="M5.041 15.98l-2.628 5.163c-.584 1.209-2.726.36-2.142-.947L10.07.755c.195-.425.65-.62 1.071-.62.422 0 .811.195 1.038.62l9.767 19.343c.844 1.405-1.557 2.221-2.173.947l-2.531-5.065H5.041zm6.101-12.35L6.015 13.923h10.222L11.142 3.631z" stroke="#222F50" fill="#2D2F4A" mask="url(#b)"/></g><path d="M101.277.868c1.59 0 1.59 2.254 0 2.254H94.04c0 5.882.033 11.861.033 17.743 0 .816-.682 1.208-1.233 1.208-.552 0-1.168-.392-1.168-1.208V3.122h-7.204c-1.525 0-1.525-2.254 0-2.254h16.809zM114.775 16.518c.843 2.712 4.446 3.301 7.042 3.301 2.757 0 7.041-.85 7.041-4.15 0-2.842-3.408-3.07-6.977-3.365-4.478-.36-9.28-.785-9.28-5.653 0-4.313 4.932-6.24 8.891-6.24 3.407 0 7.658.816 9.021 4.542.487 1.306-1.72 1.894-2.206.784-.974-2.484-4.446-2.91-6.782-2.91-2.174 0-6.393.884-6.393 3.857 0 2.842 3.244 3.136 7.009 3.43 4.445.392 9.216.62 9.216 5.522 0 5-5.55 6.535-9.54 6.535-3.311 0-8.372-1.143-9.443-5.065-.39-1.437 2.141-1.927 2.4-.588M149.528.868c1.59 0 1.59 2.254 0 2.254h-7.236c0 5.882.032 11.861.032 17.743 0 .816-.681 1.208-1.233 1.208-.551 0-1.168-.392-1.168-1.208V3.122h-7.204c-1.524 0-1.524-2.254 0-2.254h16.81z" stroke="#222F50" fill="#2D2F4A"/><g transform="translate(147.947 .211)"><mask id="d" fill="#fff"><use xlink:href="#c"/></mask><path d="M4.923 15.98l-2.628 5.163c-.584 1.209-2.725.36-2.141-.947L9.954.755c.194-.425.648-.62 1.07-.62.422 0 .811.195 1.038.62l9.768 19.343c.843 1.405-1.558 2.221-2.174.947l-2.532-5.065h-12.2zm6.101-12.35L5.897 13.923h10.222L11.024 3.631z" stroke="#222F50" fill="#2D2F4A" mask="url(#d)"/></g><path d="M175.487 14.395v6.339c0 1.502-2.368 1.502-2.368.032V2.011c0-.686.487-1.143 1.2-1.143h7.691c5.614 0 8.47 3.202 8.47 7.025 0 3.299-1.785 5.685-5.777 6.371l5.257 5.718c1.233 1.242-.551 2.679-1.622 1.568l-6.555-7.155h-6.296zm0-2.058h6.555c4.252 0 6.101-1.994 6.036-4.444-.032-2.68-2.27-4.835-6.036-4.835h-6.555v9.279zM210.24.868c1.59 0 1.59 2.254 0 2.254h-7.236c0 5.882.033 11.861.033 17.743 0 .816-.682 1.208-1.233 1.208-.552 0-1.168-.392-1.168-1.208V3.122h-7.204c-1.525 0-1.525-2.254 0-2.254h16.809z" stroke="#222F50" fill="#2D2F4A"/><mask id="f" fill="#fff"><use xlink:href="#e"/></mask><path stroke="#222F50" fill="#2D2F4A" mask="url(#f)" d="M.165 33.698h211.109v-.862H.164z"/><path fill="#2D2F4A" mask="url(#f)" d="M0 42.503h5.422v1.417h-3.85v1.469H4.96v1.416H1.572v1.52h3.902v1.416H0zM12.452 42.452h1.459l3.08 7.29h-1.653l-.658-1.624h-3.039l-.657 1.624H9.371l3.081-7.29zm1.664 4.26l-.955-2.347-.955 2.347h1.91zM21.208 42.503h3.286c.915 0 1.622.26 2.095.735.4.402.616.972.616 1.654v.021c0 1.168-.625 1.903-1.54 2.244l1.757 2.584h-1.85l-1.54-2.315H22.79v2.315h-1.58v-7.238zm3.184 3.517c.77 0 1.212-.414 1.212-1.025v-.02c0-.683-.473-1.034-1.244-1.034H22.79v2.079h1.603zM31.74 42.503h1.58v5.792h3.585v1.446H31.74zM41.891 46.887l-2.763-4.384h1.85l1.714 2.907 1.747-2.907h1.796l-2.763 4.354v2.884h-1.58zM56.514 42.503h1.58v5.792h3.585v1.446h-5.165zM65.978 42.503H71.4v1.417h-3.85v1.469h3.388v1.416H67.55v1.52h3.902v1.416h-5.474zM78.43 42.452h1.458l3.08 7.29h-1.652l-.658-1.624h-3.04l-.656 1.624h-1.613l3.08-7.29zm1.663 4.26l-.955-2.347-.955 2.347h1.91zM87.186 42.503h3.286c.915 0 1.623.26 2.095.735.401.402.616.972.616 1.654v.021c0 1.168-.625 1.903-1.54 2.244l1.756 2.584H91.55l-1.54-2.315h-1.244v2.315h-1.58v-7.238zm3.184 3.517c.77 0 1.212-.414 1.212-1.025v-.02c0-.683-.472-1.034-1.243-1.034h-1.572v2.079h1.603zM97.719 42.503h1.458l3.368 4.456v-4.456h1.561v7.238h-1.346l-3.481-4.6v4.6h-1.56zM109.011 49.74h1.58v-7.237h-1.58zM115.495 42.503h1.459l3.367 4.456v-4.456h1.561v7.238h-1.345l-3.482-4.6v4.6h-1.56zM126.397 46.143v-.02c0-2.058 1.593-3.743 3.77-3.743 1.293 0 2.074.35 2.823.993l-.995 1.209c-.556-.466-1.049-.733-1.88-.733-1.15 0-2.064 1.023-2.064 2.252v.023c0 1.322.903 2.294 2.178 2.294.574 0 1.088-.145 1.488-.434V46.95h-1.592v-1.374h3.122v3.142c-.74.631-1.756 1.149-3.07 1.149-2.24 0-3.78-1.582-3.78-3.723M143.742 46.143v-.02c0-2.058 1.54-3.743 3.75-3.743 1.354 0 2.165.455 2.833 1.116l-1.006 1.17c-.556-.508-1.12-.817-1.84-.817-1.21 0-2.083 1.012-2.083 2.252v.023c0 1.24.852 2.273 2.084 2.273.823 0 1.326-.33 1.89-.848l1.006 1.025c-.74.795-1.56 1.292-2.947 1.292-2.115 0-3.687-1.644-3.687-3.723M154.747 42.503h5.422v1.417h-3.85v1.469h3.388v1.416h-3.389v1.52h3.903v1.416h-5.474zM164.735 42.503h1.458l3.368 4.456v-4.456h1.561v7.238h-1.346l-3.481-4.6v4.6h-1.56zM177.628 43.972h-2.187v-1.469h5.957v1.469h-2.188v5.77h-1.582zM185.717 42.503h3.286c.915 0 1.622.26 2.094.735.402.402.617.972.617 1.654v.021c0 1.168-.626 1.903-1.54 2.244l1.757 2.584h-1.85l-1.54-2.315h-1.243v2.315h-1.581v-7.238zm3.183 3.517c.77 0 1.212-.414 1.212-1.025v-.02c0-.683-.472-1.034-1.243-1.034h-1.571v2.079h1.602zM196.249 42.503h5.422v1.417h-3.85v1.469h3.388v1.416h-3.388v1.52h3.902v1.416h-5.474zM205.743 48.687l.935-1.127c.646.537 1.325.88 2.146.88.648 0 1.037-.259 1.037-.684v-.02c0-.404-.246-.61-1.448-.92-1.447-.373-2.381-.777-2.381-2.214v-.02c0-1.313 1.047-2.182 2.516-2.182 1.047 0 1.94.33 2.67.92l-.822 1.2c-.637-.445-1.263-.714-1.87-.714-.605 0-.924.28-.924.631v.021c0 .476.307.63 1.55.952 1.46.382 2.281.909 2.281 2.17v.022c0 1.436-1.089 2.244-2.638 2.244a4.557 4.557 0 0 1-3.052-1.16"/></g></svg>