<?xml version="1.0" standalone="no"?>
<!DOCTYPE svg PUBLIC "-//W3C//DTD SVG 20010904//EN"
 "http://www.w3.org/TR/2001/REC-SVG-20010904/DTD/svg10.dtd">
<svg version="1.0" xmlns="http://www.w3.org/2000/svg"
 width="345.000000pt" height="345.000000pt" viewBox="0 0 345.000000 345.000000"
 preserveAspectRatio="xMidYMid meet">
<metadata>
Created by potrace 1.11, written by Peter Selinger 2001-2013
</metadata>
<g transform="translate(0.000000,345.000000) scale(0.100000,-0.100000)"
fill="#000000" stroke="none">
<path d="M1014 3258 c-15 -18 -39 -58 -53 -88 -22 -46 -26 -69 -26 -145 0 -81
3 -95 29 -143 27 -49 130 -162 147 -162 4 0 19 15 35 32 34 42 64 109 78 175
1 7 6 16 10 20 4 4 7 3 6 -2 -1 -6 -2 -18 -1 -27 3 -44 137 -1 198 63 42 45
63 106 63 187 l0 65 -45 -6 c-94 -13 -195 -88 -210 -156 -7 -32 -25 -43 -25
-16 0 49 -132 235 -168 235 -6 0 -23 -15 -38 -32z m258 -195 c-6 -10 -9 -46
-8 -80 0 -33 -2 -59 -6 -56 -12 7 -9 109 4 138 6 14 13 23 15 21 3 -2 0 -13
-5 -23z m-75 -5 c-3 -8 -6 -5 -6 6 -1 11 2 17 5 13 3 -3 4 -12 1 -19z m10 -92
c-5 -75 -37 -160 -76 -204 -33 -39 -30 -11 4 36 36 52 67 144 65 195 -2 40 -2
47 6 47 4 0 4 -33 1 -74z"/>
<path d="M660 3108 c0 -40 30 -106 58 -131 29 -26 89 -46 141 -47 l43 0 -5 44
c-13 106 -82 164 -194 166 -42 0 -43 -1 -43 -32z m216 -115 c4 -19 4 -37 0
-40 -3 -4 -6 4 -6 16 0 12 -7 38 -15 59 -13 32 -13 35 0 18 8 -11 18 -35 21
-53z"/>
<path d="M685 2912 c-23 -10 -57 -27 -77 -39 -49 -31 -44 -64 16 -119 94 -86
230 -80 334 15 l33 30 -38 41 c-20 23 -55 51 -77 62 -53 27 -138 31 -191 10z
m200 -37 c47 -27 78 -62 70 -76 -4 -5 -23 7 -42 26 -53 53 -89 69 -160 69 -67
1 -72 5 -21 15 43 9 103 -4 153 -34z m-205 11 c0 -2 -7 -7 -16 -10 -8 -3 -12
-2 -9 4 6 10 25 14 25 6z"/>
<path d="M1924 2900 c-72 -41 -99 -96 -91 -187 6 -83 14 -91 69 -70 104 40
151 130 132 250 -6 32 -10 37 -33 37 -14 0 -49 -13 -77 -30z m96 -48 c-1 -54
-20 -115 -45 -142 -21 -23 -104 -65 -112 -56 -3 3 10 13 31 21 76 32 122 111
114 196 -2 21 0 35 4 33 5 -3 8 -26 8 -52z"/>
<path d="M2182 2880 c-23 -10 -54 -32 -67 -47 -34 -37 -78 -122 -72 -137 15
-38 169 -45 239 -12 68 33 162 156 138 180 -37 37 -173 46 -238 16z m208 -60
c-11 -22 -23 -40 -25 -40 -3 0 4 18 15 40 11 22 23 40 25 40 3 0 -4 -18 -15
-40z m-30 -54 c0 -2 -8 -10 -17 -17 -16 -13 -17 -12 -4 4 13 16 21 21 21 13z"/>
<path d="M1254 2856 c-44 -19 -75 -67 -77 -118 -2 -43 -2 -43 35 -46 77 -6
148 55 162 141 l7 37 -48 0 c-26 -1 -62 -7 -79 -14z m36 -131 c-14 -8 -43 -14
-65 -13 l-40 0 48 8 c27 5 52 11 55 14 3 3 10 6 16 6 6 -1 0 -7 -14 -15z"/>
<path d="M1447 2853 c-8 -10 -25 -40 -37 -68 -37 -83 -98 -311 -92 -337 1 -5
-2 -8 -7 -8 -5 0 -14 13 -19 30 -20 55 -110 170 -144 183 -31 11 -30 -13 1
-49 78 -88 108 -195 126 -439 3 -38 7 -95 10 -125 2 -30 7 -100 10 -155 l5
-100 -35 62 c-66 116 -307 343 -363 343 -32 0 -27 -10 26 -56 94 -81 196 -238
282 -434 28 -63 56 -123 61 -132 15 -29 4 -21 -53 35 -138 137 -334 238 -506
262 -48 6 -53 5 -50 -10 2 -12 27 -25 73 -41 71 -24 214 -91 249 -117 18 -13
13 -15 -50 -15 -204 1 -221 -3 -210 -46 6 -25 7 -25 84 -19 147 13 187 9 225
-20 19 -14 43 -43 53 -64 20 -40 20 -35 14 -593 -1 -96 1 -188 5 -205 6 -22
126 -223 152 -254 2 -3 17 2 33 10 l29 14 -78 125 -79 125 21 18 c15 13 31 17
54 14 33 -6 33 -5 34 36 0 23 3 135 5 249 2 114 9 220 15 235 9 25 10 25 23 7
9 -14 12 -81 11 -274 -1 -140 0 -258 2 -262 2 -4 15 -1 29 7 26 13 75 11 106
-6 9 -5 20 -9 25 -9 4 0 9 57 11 128 5 290 11 442 17 452 3 5 14 10 24 10 16
0 18 -8 16 -72 -2 -40 -5 -172 -7 -293 l-3 -220 37 0 c61 0 67 -17 28 -72 -18
-27 -56 -81 -84 -122 l-50 -73 24 -18 c13 -10 29 -16 34 -13 16 6 146 191 161
227 12 29 17 91 30 411 3 61 7 166 10 235 3 69 11 141 17 160 35 108 116 141
250 104 54 -16 61 -16 75 -1 15 14 15 18 -1 42 -23 35 -55 45 -143 47 -40 1
-73 5 -73 9 0 5 14 24 31 43 43 50 134 82 242 85 19 1 27 6 27 20 0 44 -41 47
-160 10 -95 -30 -166 -74 -243 -152 -74 -73 -78 -68 -26 36 16 32 29 60 29 63
0 2 -10 8 -22 13 -19 7 -27 2 -53 -39 -33 -52 -88 -120 -152 -190 l-41 -45 5
40 c24 195 136 381 286 475 67 42 79 66 47 92 -23 18 -24 18 -49 -6 -27 -25
-114 -82 -167 -109 l-32 -16 9 40 c13 58 33 102 69 154 18 26 29 53 26 61 -11
30 -42 11 -89 -54 -102 -142 -186 -355 -187 -469 0 -112 -46 17 -49 138 -2 91
20 197 54 256 45 75 0 104 -48 31 l-27 -42 0 59 c0 48 20 161 55 315 3 16 40
146 74 265 11 38 17 73 15 77 -8 13 -20 9 -37 -9z"/>
<path d="M1638 2793 c-59 -64 -82 -125 -76 -200 3 -32 8 -65 12 -74 6 -13 2
-16 -16 -12 -36 6 -109 -37 -130 -77 -14 -26 -18 -50 -15 -92 2 -32 6 -60 9
-64 9 -9 78 15 111 38 37 26 60 83 54 135 l-4 41 35 -46 c19 -26 37 -49 39
-51 7 -9 94 94 114 136 28 57 33 103 20 160 -11 46 -73 142 -97 150 -6 2 -31
-18 -56 -44z m91 -18 c33 -48 50 -102 50 -155 -1 -45 -1 -45 -14 18 -13 60
-53 143 -75 157 -6 3 -10 10 -10 15 0 18 25 -1 49 -35z m-162 -362 c-5 -50
-31 -83 -84 -108 -52 -25 -51 -11 1 19 57 33 80 75 73 130 -4 32 -3 37 5 22 6
-10 8 -38 5 -63z"/>
<path d="M903 2696 c-61 -29 -97 -77 -114 -151 l-11 -51 -37 17 c-20 10 -50
20 -68 24 -29 6 -32 4 -38 -24 -20 -90 10 -183 72 -225 39 -27 138 -54 151
-42 4 4 7 38 7 76 0 61 -4 73 -32 114 l-33 46 43 0 c109 0 193 64 223 168 14
46 14 56 3 63 -27 17 -113 9 -166 -15z m157 -13 c0 -14 -2 -15 -9 -4 -6 9 -24
12 -59 10 -27 -2 -48 -1 -45 4 2 4 29 7 59 7 45 0 54 -3 54 -17z m-295 -206
c58 -40 81 -84 82 -157 l1 -55 -9 59 c-13 87 -74 156 -151 173 -16 3 -28 9
-28 13 0 13 72 -10 105 -33z"/>
<path d="M1972 2613 c-63 -26 -125 -81 -166 -145 -20 -32 -36 -62 -36 -66 0
-9 77 -50 118 -62 l27 -8 -25 -1 c-30 -1 -90 -18 -109 -30 -12 -8 -12 -14 4
-38 31 -50 95 -102 133 -109 22 -4 52 -2 77 7 37 13 40 17 38 48 -2 39 -52 97
-93 109 -18 5 -3 8 51 12 122 9 223 72 298 184 24 37 25 39 6 52 -73 54 -245
79 -323 47z m312 -78 c-4 -8 -10 -15 -15 -15 -4 0 -6 7 -3 15 4 8 10 15 15 15
4 0 6 -7 3 -15z m-33 -43 c-5 -9 -19 -26 -32 -37 -17 -15 -15 -10 7 17 32 41
40 48 25 20z m-371 -196 c-30 -7 -60 -15 -67 -19 -6 -4 -14 -3 -17 2 -11 17
71 40 114 32 19 -3 12 -7 -30 -15z"/>
<path d="M1008 2529 c-53 -58 -72 -104 -73 -179 0 -68 22 -128 65 -179 20 -23
21 -23 43 -5 119 101 153 201 104 305 -50 108 -81 121 -139 58z m-25 -74 c-3
-9 -8 -14 -10 -11 -3 3 -2 9 2 15 9 16 15 13 8 -4z m-20 -108 c6 -46 47 -134
71 -149 8 -5 8 -10 0 -18 -8 -8 -18 0 -35 27 -39 60 -49 90 -49 145 0 62 6 60
13 -5z"/>
<path d="M417 2463 c-16 -35 -22 -67 -22 -120 0 -63 3 -76 30 -114 36 -51 108
-109 136 -109 14 0 26 14 41 47 55 124 22 231 -97 313 -24 17 -49 30 -55 30
-6 0 -21 -21 -33 -47z m192 -188 c0 -22 -6 -53 -14 -70 -11 -23 -13 -24 -7 -5
4 14 7 48 7 75 0 28 -3 61 -7 75 -6 19 -4 18 7 -5 8 -16 14 -48 14 -70z"/>
<path d="M2455 2336 c-112 -51 -161 -153 -141 -290 8 -54 18 -57 91 -22 89 41
145 124 145 214 0 48 -21 122 -34 121 -6 0 -33 -10 -61 -23z m74 -100 c1 -68
-6 -73 -10 -6 -1 25 -6 56 -11 68 -4 13 -5 29 -1 35 11 17 21 -28 22 -97z"/>
<path d="M2090 2228 c-34 -75 -22 -164 32 -228 17 -20 69 -60 78 -60 4 0 17
22 29 49 44 104 16 199 -79 264 -35 24 -39 22 -60 -25z"/>
<path d="M143 2203 c-28 -5 -29 -22 -6 -89 37 -110 120 -198 213 -224 47 -13
137 -13 200 1 l52 11 -7 37 c-10 56 -64 149 -109 188 -68 58 -118 76 -226 78
-52 1 -105 0 -117 -2z m378 -140 c13 -16 12 -17 -3 -4 -10 7 -18 15 -18 17 0
8 8 3 21 -13z m54 -122 c8 -48 -2 -37 -20 22 -9 28 -18 59 -21 67 -3 8 4 -1
15 -21 11 -20 23 -51 26 -68z"/>
<path d="M652 2188 c-55 -59 -68 -147 -33 -217 20 -37 51 -71 51 -55 0 5 14
24 30 42 58 67 63 142 14 213 -15 22 -30 39 -34 39 -3 0 -16 -10 -28 -22z m63
-51 c8 -16 15 -49 14 -71 l-1 -41 -9 38 c-5 21 -18 56 -29 79 -11 23 -20 44
-20 46 0 12 31 -24 45 -51z"/>
<path d="M1884 2101 c-66 -30 -114 -111 -114 -193 0 -25 3 -28 36 -28 110 0
191 58 220 156 8 30 13 62 10 70 -8 21 -102 18 -152 -5z m125 -51 c-6 -25 -14
-49 -18 -53 -7 -7 0 37 16 92 9 34 11 1 2 -39z"/>
<path d="M2604 2106 c-61 -27 -131 -129 -102 -147 26 -17 100 -21 137 -9 44
14 112 74 135 118 16 32 16 32 -9 42 -37 14 -124 12 -161 -4z m7 -144 c-43 -4
-103 6 -97 17 3 4 33 2 68 -3 53 -9 57 -12 29 -14z"/>
<path d="M783 2048 c-40 -13 -41 -27 -5 -63 47 -47 111 -58 178 -30 30 12 34
17 25 34 -6 10 -24 31 -42 45 -33 28 -94 34 -156 14z m20 -53 c23 -32 17 -32
-13 0 -13 14 -19 25 -14 25 5 0 17 -12 27 -25z"/>
<path d="M2315 1927 c-46 -16 -125 -55 -125 -63 0 -20 50 -96 91 -135 69 -67
140 -93 239 -86 66 4 159 31 198 56 36 23 -89 175 -175 213 -59 26 -172 33
-228 15z m344 -129 c27 -42 55 -93 49 -88 -14 12 -76 110 -70 110 4 0 14 -10
21 -22z"/>
<path d="M95 1890 c-40 -20 -95 -82 -95 -106 0 -18 81 -54 123 -54 21 0 52 6
70 14 30 13 107 82 107 96 0 13 -35 39 -73 55 -49 20 -84 19 -132 -5z m155
-27 c16 -9 27 -20 24 -25 -3 -4 -17 0 -31 9 -14 9 -46 23 -71 30 l-47 13 48
-5 c27 -3 62 -12 77 -22z"/>
<path d="M538 1810 c-69 -80 -74 -180 -14 -267 29 -41 38 -48 62 -45 16 2 34
8 41 14 28 23 55 80 60 126 6 58 -24 127 -80 180 l-34 33 -35 -41z m52 4 c0
-4 -13 -22 -30 -40 -40 -47 -57 -105 -43 -156 6 -22 7 -36 3 -31 -18 19 -26
79 -16 118 14 52 53 115 72 115 8 0 14 -3 14 -6z m-35 -274 l20 -25 -22 19
c-13 11 -23 24 -23 29 0 6 1 8 3 6 1 -2 11 -15 22 -29z"/>
<path d="M343 1809 c-103 -30 -151 -96 -160 -215 l-6 -77 63 6 c141 15 239
122 236 257 -1 35 -1 35 -51 37 -27 1 -65 -3 -82 -8z m108 -85 c-24 -104 -99
-171 -204 -179 l-52 -4 44 9 c116 25 181 87 203 192 7 33 14 54 16 48 3 -7 -1
-37 -7 -66z"/>
<path d="M2114 1755 c-34 -81 -10 -156 70 -222 22 -18 24 -17 44 25 41 84 21
161 -58 215 -34 24 -39 22 -56 -18z m116 -104 c0 -43 -18 -101 -30 -101 -5 0
-2 20 7 45 8 25 13 59 11 75 -2 16 -1 27 4 24 4 -3 8 -22 8 -43z"/>
<path d="M2292 1653 c-4 -10 -7 -55 -7 -100 0 -74 3 -85 30 -124 17 -24 48
-56 70 -70 44 -30 112 -56 121 -46 4 3 9 37 12 75 8 118 -36 206 -126 251 -61
30 -91 34 -100 14z m97 -32 c11 -7 21 -13 21 -15 0 -6 -88 28 -96 37 -9 9 48
-8 75 -22z"/>
<path d="M850 1554 c-15 -39 -12 -112 6 -150 17 -35 76 -77 125 -89 30 -7 39
10 39 78 0 74 -36 129 -109 167 -50 25 -50 25 -61 -6z m80 -28 c0 -3 -13 1
-30 7 -16 6 -30 15 -30 19 0 5 14 2 30 -7 17 -9 30 -17 30 -19z"/>
<path d="M709 1522 c-59 -38 -83 -90 -77 -167 6 -74 16 -83 68 -60 75 34 117
108 106 191 -3 24 -8 49 -11 54 -11 17 -40 11 -86 -18z m81 -62 c0 -25 -4 -50
-8 -57 -4 -6 -7 19 -7 57 0 37 3 63 7 56 4 -6 8 -31 8 -56z"/>
<path d="M2588 663 c-50 -31 -67 -118 -35 -182 14 -29 14 -32 -13 -74 -69
-109 -139 -142 -265 -123 -16 3 -86 24 -155 49 -242 85 -297 85 -460 -8 -52
-30 -114 -57 -138 -61 -45 -7 -61 -19 -45 -35 17 -17 103 11 193 62 156 87
207 88 441 8 182 -62 254 -69 329 -30 52 27 103 72 132 119 l20 33 42 -34
c257 -209 541 -266 799 -162 20 8 23 35 3 35 -7 0 -29 -7 -49 -15 -211 -88
-511 -16 -730 176 l-39 34 26 77 c29 84 32 118 14 136 -16 16 -38 15 -70 -5z
m47 -49 c1 -30 -37 -115 -49 -111 -18 6 -6 97 17 125 14 17 32 10 32 -14z"/>
<path d="M1329 461 c-14 -5 -35 -13 -47 -20 l-21 -11 20 -49 c26 -62 75 -121
100 -121 34 0 87 74 113 156 12 40 -89 67 -165 45z"/>
</g>
</svg>
