<svg version="1" xmlns="http://www.w3.org/2000/svg" width="460" height="460" viewBox="0 0 345 345"><path d="M101.4 19.2C99.9 21 97.5 25 96.1 28c-2.2 4.6-2.6 6.9-2.6 14.5 0 8.1.3 9.5 2.9 14.3 2.7 4.9 13 16.2 14.7 16.2.4 0 1.9-1.5 3.5-3.2 3.4-4.2 6.4-10.9 7.8-17.5.1-.7.6-1.6 1-2 .4-.4.7-.3.6.2-.1.6-.2 1.8-.1 2.7.3 4.4 13.7.1 19.8-6.3 4.2-4.5 6.3-10.6 6.3-18.7v-6.5l-4.5.6c-9.4 1.3-19.5 8.8-21 15.6-.7 3.2-2.5 4.3-2.5 1.6 0-4.9-13.2-23.5-16.8-23.5-.6 0-2.3 1.5-3.8 3.2zm25.8 19.5c-.6 1-.9 4.6-.8 8 0 3.3-.2 5.9-.6 5.6-1.2-.7-.9-10.9.4-13.8.6-1.4 1.3-2.3 1.5-2.1.3.2 0 1.3-.5 2.3zm-7.5.5c-.3.8-.6.5-.6-.6-.1-1.1.2-1.7.5-1.3.3.3.4 1.2.1 1.9zm1 9.2c-.5 7.5-3.7 16-7.6 20.4-3.3 3.9-3 1.1.4-3.6 3.6-5.2 6.7-14.4 6.5-19.5-.2-4-.2-4.7.6-4.7.4 0 .4 3.3.1 7.4zM66 34.2c0 4 3 10.6 5.8 13.1 2.9 2.6 8.9 4.6 14.1 4.7h4.3l-.5-4.4C88.4 37 81.5 31.2 70.3 31c-4.2 0-4.3.1-4.3 3.2zm21.6 11.5c.4 1.9.4 3.7 0 4-.3.4-.6-.4-.6-1.6 0-1.2-.7-3.8-1.5-5.9-1.3-3.2-1.3-3.5 0-1.8.8 1.1 1.8 3.5 2.1 5.3zM68.5 53.8c-2.3 1-5.7 2.7-7.7 3.9-4.9 3.1-4.4 6.4 1.6 11.9 9.4 8.6 23 8 33.4-1.5l3.3-3-3.8-4.1c-2-2.3-5.5-5.1-7.7-6.2-5.3-2.7-13.8-3.1-19.1-1zm20 3.7c4.7 2.7 7.8 6.2 7 7.6-.4.5-2.3-.7-4.2-2.6-5.3-5.3-8.9-6.9-16-6.9-6.7-.1-7.2-.5-2.1-1.5 4.3-.9 10.3.4 15.3 3.4zM68 56.4c0 .2-.7.7-1.6 1-.8.3-1.2.2-.9-.4.6-1 2.5-1.4 2.5-.6zM192.4 55c-7.2 4.1-9.9 9.6-9.1 18.7.6 8.3 1.4 9.1 6.9 7 10.4-4 15.1-13 13.2-25-.6-3.2-1-3.7-3.3-3.7-1.4 0-4.9 1.3-7.7 3zm9.6 4.8c-.1 5.4-2 11.5-4.5 14.2-2.1 2.3-10.4 6.5-11.2 5.6-.3-.3 1-1.3 3.1-2.1 7.6-3.2 12.2-11.1 11.4-19.6-.2-2.1 0-3.5.4-3.3.5.3.8 2.6.8 5.2zM218.2 57c-2.3 1-5.4 3.2-6.7 4.7-3.4 3.7-7.8 12.2-7.2 13.7 1.5 3.8 16.9 4.5 23.9 1.2 6.8-3.3 16.2-15.6 13.8-18-3.7-3.7-17.3-4.6-23.8-1.6zm20.8 6c-1.1 2.2-2.3 4-2.5 4-.3 0 .4-1.8 1.5-4s2.3-4 2.5-4c.3 0-.4 1.8-1.5 4zm-3 5.4c0 .2-.8 1-1.7 1.7-1.6 1.3-1.7 1.2-.4-.4 1.3-1.6 2.1-2.1 2.1-1.3z"/><path d="M125.4 59.4c-4.4 1.9-7.5 6.7-7.7 11.8-.2 4.3-.2 4.3 3.5 4.6 7.7.6 14.8-5.5 16.2-14.1l.7-3.7h-4.8c-2.6.1-6.2.7-7.9 1.4zm3.6 13.1c-1.4.8-4.3 1.4-6.5 1.3h-4l4.8-.8c2.7-.5 5.2-1.1 5.5-1.4.3-.3 1-.6 1.6-.6.6.1 0 .7-1.4 1.5z"/><path d="M144.7 59.7c-.8 1-2.5 4-3.7 6.8-3.7 8.3-9.8 31.1-9.2 33.7.1.5-.2.8-.7.8-.5 0-1.4-1.3-1.9-3-2-5.5-11-17-14.4-18.3-3.1-1.1-3 1.3.1 4.9 7.8 8.8 10.8 19.5 12.6 43.9.3 3.8.7 9.5 1 12.5.2 3 .7 10 1 15.5l.5 10-3.5-6.2c-6.6-11.6-30.7-34.3-36.3-34.3-3.2 0-2.7 1 2.6 5.6 9.4 8.1 19.6 23.8 28.2 43.4 2.8 6.3 5.6 12.3 6.1 13.2 1.5 2.9.4 2.1-5.3-3.5-13.8-13.7-33.4-23.8-50.6-26.2-4.8-.6-5.3-.5-5 1 .2 1.2 2.7 2.5 7.3 4.1 7.1 2.4 21.4 9.1 24.9 11.7 1.8 1.3 1.3 1.5-5 1.5-20.4-.1-22.1.3-21 4.6.6 2.5.7 2.5 8.4 1.9 14.7-1.3 18.7-.9 22.5 2 1.9 1.4 4.3 4.3 5.3 6.4 2 4 2 3.5 1.4 59.3-.1 9.6.1 18.8.5 20.5.6 2.2 12.6 22.3 15.2 25.4.2.3 1.7-.2 3.3-1l2.9-1.4-7.8-12.5-7.9-12.5 2.1-1.8c1.5-1.3 3.1-1.7 5.4-1.4 3.3.6 3.3.5 3.4-3.6 0-2.3.3-13.5.5-24.9.2-11.4.9-22 1.5-23.5.9-2.5 1-2.5 2.3-.7.9 1.4 1.2 8.1 1.1 27.4-.1 14 0 25.8.2 26.2.2.4 1.5.1 2.9-.7 2.6-1.3 7.5-1.1 10.6.6.9.5 2 .9 2.5.9.4 0 .9-5.7 1.1-12.8.5-29 1.1-44.2 1.7-45.2.3-.5 1.4-1 2.4-1 1.6 0 1.8.8 1.6 7.2-.2 4-.5 17.2-.7 29.3l-.3 22h3.7c6.1 0 6.7 1.7 2.8 7.2-1.8 2.7-5.6 8.1-8.4 12.2l-5 7.3 2.4 1.8c1.3 1 2.9 1.6 3.4 1.3 1.6-.6 14.6-19.1 16.1-22.7 1.2-2.9 1.7-9.1 3-41.1.3-6.1.7-16.6 1-23.5.3-6.9 1.1-14.1 1.7-16 3.5-10.8 11.6-14.1 25-10.4 5.4 1.6 6.1 1.6 7.5.1 1.5-1.4 1.5-1.8-.1-4.2-2.3-3.5-5.5-4.5-14.3-4.7-4-.1-7.3-.5-7.3-.9 0-.5 1.4-2.4 3.1-4.3 4.3-5 13.4-8.2 24.2-8.5 1.9-.1 2.7-.6 2.7-2 0-4.4-4.1-4.7-16-1-9.5 3-16.6 7.4-24.3 15.2-7.4 7.3-7.8 6.8-2.6-3.6 1.6-3.2 2.9-6 2.9-6.3 0-.2-1-.8-2.2-1.3-1.9-.7-2.7-.2-5.3 3.9-3.3 5.2-8.8 12-15.2 19l-4.1 4.5.5-4c2.4-19.5 13.6-38.1 28.6-47.5 6.7-4.2 7.9-6.6 4.7-9.2-2.3-1.8-2.4-1.8-4.9.6-2.7 2.5-11.4 8.2-16.7 10.9l-3.2 1.6.9-4c1.3-5.8 3.3-10.2 6.9-15.4 1.8-2.6 2.9-5.3 2.6-6.1-1.1-3-4.2-1.1-8.9 5.4-10.2 14.2-18.6 35.5-18.7 46.9 0 11.2-4.6-1.7-4.9-13.8-.2-9.1 2-19.7 5.4-25.6 4.5-7.5 0-10.4-4.8-3.1l-2.7 4.2v-5.9c0-4.8 2-16.1 5.5-31.5.3-1.6 4-14.6 7.4-26.5 1.1-3.8 1.7-7.3 1.5-7.7-.8-1.3-2-.9-3.7.9z"/><path d="M163.8 65.7c-5.9 6.4-8.2 12.5-7.6 20 .3 3.2.8 6.5 1.2 7.4.6 1.3.2 1.6-1.6 1.2-3.6-.6-10.9 3.7-13 7.7-1.4 2.6-1.8 5-1.5 9.2.2 3.2.6 6 .9 6.4.9.9 7.8-1.5 11.1-3.8 3.7-2.6 6-8.3 5.4-13.5l-.4-4.1 3.5 4.6c1.9 2.6 3.7 4.9 3.9 5.1.7.9 9.4-9.4 11.4-13.6 2.8-5.7 3.3-10.3 2-16-1.1-4.6-7.3-14.2-9.7-15-.6-.2-3.1 1.8-5.6 4.4zm9.1 1.8c3.3 4.8 5 10.2 5 15.5-.1 4.5-.1 4.5-1.4-1.8-1.3-6-5.3-14.3-7.5-15.7-.6-.3-1-1-1-1.5 0-1.8 2.5.1 4.9 3.5zm-16.2 36.2c-.5 5-3.1 8.3-8.4 10.8-5.2 2.5-5.1 1.1.1-1.9 5.7-3.3 8-7.5 7.3-13-.4-3.2-.3-3.7.5-2.2.6 1 .8 3.8.5 6.3zM90.3 75.4c-6.1 2.9-9.7 7.7-11.4 15.1l-1.1 5.1-3.7-1.7c-2-1-5-2-6.8-2.4-2.9-.6-3.2-.4-3.8 2.4-2 9 1 18.3 7.2 22.5 3.9 2.7 13.8 5.4 15.1 4.2.4-.4.7-3.8.7-7.6 0-6.1-.4-7.3-3.2-11.4L80 97h4.3c10.9 0 19.3-6.4 22.3-16.8 1.4-4.6 1.4-5.6.3-6.3-2.7-1.7-11.3-.9-16.6 1.5zm15.7 1.3c0 1.4-.2 1.5-.9.4-.6-.9-2.4-1.2-5.9-1-2.7.2-4.8.1-4.5-.4.2-.4 2.9-.7 5.9-.7 4.5 0 5.4.3 5.4 1.7zM76.5 97.3c5.8 4 8.1 8.4 8.2 15.7l.1 5.5-.9-5.9c-1.3-8.7-7.4-15.6-15.1-17.3-1.6-.3-2.8-.9-2.8-1.3 0-1.3 7.2 1 10.5 3.3zM197.2 83.7c-6.3 2.6-12.5 8.1-16.6 14.5-2 3.2-3.6 6.2-3.6 6.6 0 .9 7.7 5 11.8 6.2l2.7.8-2.5.1c-3 .1-9 1.8-10.9 3-1.2.8-1.2 1.4.4 3.8 3.1 5 9.5 10.2 13.3 10.9 2.2.4 5.2.2 7.7-.7 3.7-1.3 4-1.7 3.8-4.8-.2-3.9-5.2-9.7-9.3-10.9-1.8-.5-.3-.8 5.1-1.2 12.2-.9 22.3-7.2 29.8-18.4 2.4-3.7 2.5-3.9.6-5.2-7.3-5.4-24.5-7.9-32.3-4.7zm31.2 7.8c-.4.8-1 1.5-1.5 1.5-.4 0-.6-.7-.3-1.5.4-.8 1-1.5 1.5-1.5.4 0 .6.7.3 1.5zm-3.3 4.3c-.5.9-1.9 2.6-3.2 3.7-1.7 1.5-1.5 1 .7-1.7 3.2-4.1 4-4.8 2.5-2zM188 115.4c-3 .7-6 1.5-6.7 1.9-.6.4-1.4.3-1.7-.2-1.1-1.7 7.1-4 11.4-3.2 1.9.3 1.2.7-3 1.5z"/><path d="M100.8 92.1c-5.3 5.8-7.2 10.4-7.3 17.9 0 6.8 2.2 12.8 6.5 17.9 2 2.3 2.1 2.3 4.3.5 11.9-10.1 15.3-20.1 10.4-30.5-5-10.8-8.1-12.1-13.9-5.8zm-2.5 7.4c-.3.9-.8 1.4-1 1.1-.3-.3-.2-.9.2-1.5.9-1.6 1.5-1.3.8.4zm-2 10.8c.6 4.6 4.7 13.4 7.1 14.9.8.5.8 1 0 1.8s-1.8 0-3.5-2.7c-3.9-6-4.9-9-4.9-14.5 0-6.2.6-6 1.3.5zM41.7 98.7c-1.6 3.5-2.2 6.7-2.2 12 0 6.3.3 7.6 3 11.4 3.6 5.1 10.8 10.9 13.6 10.9 1.4 0 2.6-1.4 4.1-4.7 5.5-12.4 2.2-23.1-9.7-31.3-2.4-1.7-4.9-3-5.5-3-.6 0-2.1 2.1-3.3 4.7zm19.2 18.8c0 2.2-.6 5.3-1.4 7-1.1 2.3-1.3 2.4-.7.5.4-1.4.7-4.8.7-7.5 0-2.8-.3-6.1-.7-7.5-.6-1.9-.4-1.8.7.5.8 1.6 1.4 4.8 1.4 7zM245.5 111.4c-11.2 5.1-16.1 15.3-14.1 29 .8 5.4 1.8 5.7 9.1 2.2 8.9-4.1 14.5-12.4 14.5-21.4 0-4.8-2.1-12.2-3.4-12.1-.6 0-3.3 1-6.1 2.3zm7.4 10c.1 6.8-.6 7.3-1 .6-.1-2.5-.6-5.6-1.1-6.8-.4-1.3-.5-2.9-.1-3.5 1.1-1.7 2.1 2.8 2.2 9.7zM209 122.2c-3.4 7.5-2.2 16.4 3.2 22.8 1.7 2 6.9 6 7.8 6 .4 0 1.7-2.2 2.9-4.9 4.4-10.4 1.6-19.9-7.9-26.4-3.5-2.4-3.9-2.2-6 2.5zM14.3 124.7c-2.8.5-2.9 2.2-.6 8.9 3.7 11 12 19.8 21.3 22.4 4.7 1.3 13.7 1.3 20-.1l5.2-1.1-.7-3.7c-1-5.6-6.4-14.9-10.9-18.8-6.8-5.8-11.8-7.6-22.6-7.8-5.2-.1-10.5 0-11.7.2zm37.8 14c1.3 1.6 1.2 1.7-.3.4-1-.7-1.8-1.5-1.8-1.7 0-.8.8-.3 2.1 1.3zm5.4 12.2c.8 4.8-.2 3.7-2-2.2-.9-2.8-1.8-5.9-2.1-6.7-.3-.8.4.1 1.5 2.1s2.3 5.1 2.6 6.8zM65.2 126.2c-5.5 5.9-6.8 14.7-3.3 21.7 2 3.7 5.1 7.1 5.1 5.5 0-.5 1.4-2.4 3-4.2 5.8-6.7 6.3-14.2 1.4-21.3-1.5-2.2-3-3.9-3.4-3.9-.3 0-1.6 1-2.8 2.2zm6.3 5.1c.8 1.6 1.5 4.9 1.4 7.1l-.1 4.1-.9-3.8c-.5-2.1-1.8-5.6-2.9-7.9-1.1-2.3-2-4.4-2-4.6 0-1.2 3.1 2.4 4.5 5.1zM188.4 134.9c-6.6 3-11.4 11.1-11.4 19.3 0 2.5.3 2.8 3.6 2.8 11 0 19.1-5.8 22-15.6.8-3 1.3-6.2 1-7-.8-2.1-10.2-1.8-15.2.5zm12.5 5.1c-.6 2.5-1.4 4.9-1.8 5.3-.7.7 0-3.7 1.6-9.2.9-3.4 1.1-.1.2 3.9zM260.4 134.4c-6.1 2.7-13.1 12.9-10.2 14.7 2.6 1.7 10 2.1 13.7.9 4.4-1.4 11.2-7.4 13.5-11.8 1.6-3.2 1.6-3.2-.9-4.2-3.7-1.4-12.4-1.2-16.1.4zm.7 14.4c-4.3.4-10.3-.6-9.7-1.7.3-.4 3.3-.2 6.8.3 5.3.9 5.7 1.2 2.9 1.4z"/><path d="M78.3 140.2c-4 1.3-4.1 2.7-.5 6.3 4.7 4.7 11.1 5.8 17.8 3 3-1.2 3.4-1.7 2.5-3.4-.6-1-2.4-3.1-4.2-4.5-3.3-2.8-9.4-3.4-15.6-1.4zm2 5.3c2.3 3.2 1.7 3.2-1.3 0-1.3-1.4-1.9-2.5-1.4-2.5s1.7 1.2 2.7 2.5zM231.5 152.3c-4.6 1.6-12.5 5.5-12.5 6.3 0 2 5 9.6 9.1 13.5 6.9 6.7 14 9.3 23.9 8.6 6.6-.4 15.9-3.1 19.8-5.6 3.6-2.3-8.9-17.5-17.5-21.3-5.9-2.6-17.2-3.3-22.8-1.5zm34.4 12.9c2.7 4.2 5.5 9.3 4.9 8.8-1.4-1.2-7.6-11-7-11 .4 0 1.4 1 2.1 2.2zM9.5 156c-4 2-9.5 8.2-9.5 10.6 0 1.8 8.1 5.4 12.3 5.4 2.1 0 5.2-.6 7-1.4 3-1.3 10.7-8.2 10.7-9.6 0-1.3-3.5-3.9-7.3-5.5-4.9-2-8.4-1.9-13.2.5zm15.5 2.7c1.6.9 2.7 2 2.4 2.5-.3.4-1.7 0-3.1-.9-1.4-.9-4.6-2.3-7.1-3l-4.7-1.3 4.8.5c2.7.3 6.2 1.2 7.7 2.2zM53.8 164c-6.9 8-7.4 18-1.4 26.7 2.9 4.1 3.8 4.8 6.2 4.5 1.6-.2 3.4-.8 4.1-1.4 2.8-2.3 5.5-8 6-12.6.6-5.8-2.4-12.7-8-18l-3.4-3.3-3.5 4.1zm5.2-.4c0 .4-1.3 2.2-3 4-4 4.7-5.7 10.5-4.3 15.6.6 2.2.7 3.6.3 3.1-1.8-1.9-2.6-7.9-1.6-11.8 1.4-5.2 5.3-11.5 7.2-11.5.8 0 1.4.3 1.4.6zM55.5 191l2 2.5-2.2-1.9c-1.3-1.1-2.3-2.4-2.3-2.9 0-.6.1-.8.3-.6.1.2 1.1 1.5 2.2 2.9zM34.3 164.1c-10.3 3-15.1 9.6-16 21.5l-.6 7.7 6.3-.6c14.1-1.5 23.9-12.2 23.6-25.7-.1-3.5-.1-3.5-5.1-3.7-2.7-.1-6.5.3-8.2.8zm10.8 8.5c-2.4 10.4-9.9 17.1-20.4 17.9l-5.2.4 4.4-.9c11.6-2.5 18.1-8.7 20.3-19.2.7-3.3 1.4-5.4 1.6-4.8.3.7-.1 3.7-.7 6.6zM211.4 169.5c-3.4 8.1-1 15.6 7 22.2 2.2 1.8 2.4 1.7 4.4-2.5 4.1-8.4 2.1-16.1-5.8-21.5-3.4-2.4-3.9-2.2-5.6 1.8zm11.6 10.4c0 4.3-1.8 10.1-3 10.1-.5 0-.2-2 .7-4.5.8-2.5 1.3-5.9 1.1-7.5-.2-1.6-.1-2.7.4-2.4.4.3.8 2.2.8 4.3zM229.2 179.7c-.4 1-.7 5.5-.7 10 0 7.4.3 8.5 3 12.4 1.7 2.4 4.8 5.6 7 7 4.4 3 11.2 5.6 12.1 4.6.4-.3.9-3.7 1.2-7.5.8-11.8-3.6-20.6-12.6-25.1-6.1-3-9.1-3.4-10-1.4zm9.7 3.2c1.1.7 2.1 1.3 2.1 1.5 0 .6-8.8-2.8-9.6-3.7-.9-.9 4.8.8 7.5 2.2zM85 189.6c-1.5 3.9-1.2 11.2.6 15 1.7 3.5 7.6 7.7 12.5 8.9 3 .7 3.9-1 3.9-7.8 0-7.4-3.6-12.9-10.9-16.7-5-2.5-5-2.5-6.1.6zm8 2.8c0 .3-1.3-.1-3-.7-1.6-.6-3-1.5-3-1.9 0-.5 1.4-.2 3 .7 1.7.9 3 1.7 3 1.9zM70.9 192.8c-5.9 3.8-8.3 9-7.7 16.7.6 7.4 1.6 8.3 6.8 6 7.5-3.4 11.7-10.8 10.6-19.1-.3-2.4-.8-4.9-1.1-5.4-1.1-1.7-4-1.1-8.6 1.8zM79 199c0 2.5-.4 5-.8 5.7-.4.6-.7-1.9-.7-5.7 0-3.7.3-6.3.7-5.6.4.6.8 3.1.8 5.6zM258.8 278.7c-5 3.1-6.7 11.8-3.5 18.2 1.4 2.9 1.4 3.2-1.3 7.4-6.9 10.9-13.9 14.2-26.5 12.3-1.6-.3-8.6-2.4-15.5-4.9-24.2-8.5-29.7-8.5-46 .8-5.2 3-11.4 5.7-13.8 6.1-4.5.7-6.1 1.9-4.5 3.5 1.7 1.7 10.3-1.1 19.3-6.2 15.6-8.7 20.7-8.8 44.1-.8 18.2 6.2 25.4 6.9 32.9 3 5.2-2.7 10.3-7.2 13.2-11.9l2-3.3 4.2 3.4c25.7 20.9 54.1 26.6 79.9 16.2 2-.8 2.3-3.5.3-3.5-.7 0-2.9.7-4.9 1.5-21.1 8.8-51.1 1.6-73-17.6l-3.9-3.4 2.6-7.7c2.9-8.4 3.2-11.8 1.4-13.6-1.6-1.6-3.8-1.5-7 .5zm4.7 4.9c.1 3-3.7 11.5-4.9 11.1-1.8-.6-.6-9.7 1.7-12.5 1.4-1.7 3.2-1 3.2 1.4zM132.9 298.9c-1.4.5-3.5 1.3-4.7 2l-2.1 1.1 2 4.9c2.6 6.2 7.5 12.1 10 12.1 3.4 0 8.7-7.4 11.3-15.6 1.2-4-8.9-6.7-16.5-4.5z"/></svg>